<?xml version="1.0" encoding="UTF-8"?>
<svg version="1.1" xmlns="http://www.w3.org/2000/svg" width="1178" height="446">
<path d="M0 0 C91.16684363 -0.08566263 182.33369172 -0.16517053 273.50056458 -0.2117157 C274.86261361 -0.21241295 276.22466264 -0.21311021 277.58671167 -0.21380747 C306.17527494 -0.2284203 334.76383862 -0.24200394 363.35240293 -0.25439839 C377.71297654 -0.26062546 392.07355007 -0.26705033 406.43412352 -0.27366221 C408.60038772 -0.27465845 410.76665192 -0.27564904 412.93291613 -0.2766394 C446.2978949 -0.29194277 479.66286455 -0.31149333 513.02783203 -0.34332275 C513.74543348 -0.34400725 514.46303492 -0.34469174 515.20238187 -0.34539698 C526.77254552 -0.3564591 538.34270882 -0.36787704 549.91287207 -0.3793422 C583.2307499 -0.41235228 616.54862072 -0.44273956 649.86651325 -0.45569897 C650.8938345 -0.45610048 650.8938345 -0.45610048 651.9419097 -0.4565101 C666.97522509 -0.46233837 682.00854056 -0.4668129 697.04185672 -0.47000491 C703.09038227 -0.47131306 709.13890776 -0.47281615 715.18743324 -0.47438622 C715.84942582 -0.47455335 716.5114184 -0.47472049 717.19347136 -0.47489269 C739.19834998 -0.48054839 761.20316357 -0.50361364 783.20801775 -0.53416017 C804.63768367 -0.56354144 826.06729794 -0.57485372 847.49698331 -0.56750689 C860.24238643 -0.56369231 872.98760111 -0.57394642 885.73297035 -0.60398772 C894.23506903 -0.62266558 902.73704359 -0.62336911 911.23915067 -0.60915907 C916.09117106 -0.60157304 920.94283383 -0.60208435 925.79481664 -0.62441591 C930.20339245 -0.64455355 934.61132945 -0.64194419 939.01989472 -0.62069988 C940.61010475 -0.61711015 942.2003608 -0.62201843 943.79051186 -0.63617622 C945.94202802 -0.65412705 948.09125247 -0.64148357 950.24269551 -0.62099248 C952.03280714 -0.62216234 952.03280714 -0.62216234 953.85908265 -0.62335582 C960.00815439 0.59700729 963.22573312 6.3996598 966.8125 11.1875 C967.69063903 12.34433279 968.56955394 13.500577 969.44921875 14.65625 C969.88024902 15.2234375 970.3112793 15.790625 970.75537109 16.375 C974.36043193 21.08180364 978.11166573 25.67742852 981.8515625 30.27734375 C986.02059821 35.43287968 990.03627531 40.68625301 994 46 C997.90293418 51.23214614 1001.85888346 56.40102227 1005.96484375 61.4765625 C1012.85628035 70.0214148 1019.5670753 78.7148258 1026.3125 87.375 C1026.88693848 88.11169922 1027.46137695 88.84839844 1028.05322266 89.60742188 C1029.70766179 91.7340785 1031.35464466 93.86631069 1033 96 C1033.8669751 97.1122998 1033.8669751 97.1122998 1034.75146484 98.24707031 C1035.57638428 99.31973145 1035.57638428 99.31973145 1036.41796875 100.4140625 C1037.16276489 101.37626709 1037.16276489 101.37626709 1037.92260742 102.35791016 C1039 104 1039 104 1039 106 C1039.99 106.33 1040.98 106.66 1042 107 C1043.44213867 108.55053711 1043.44213867 108.55053711 1044.91796875 110.52734375 C1045.71557617 111.59178711 1045.71557617 111.59178711 1046.52929688 112.67773438 C1047.07650391 113.42345703 1047.62371094 114.16917969 1048.1875 114.9375 C1049.02571289 116.0502832 1049.02571289 116.0502832 1049.88085938 117.18554688 C1054 122.73305861 1054 122.73305861 1054 125 C1054.66 125 1055.32 125 1056 125 C1057.2530313 126.55351843 1058.42642947 128.17150923 1059.5625 129.8125 C1063.12972924 134.84668764 1066.90587089 139.62454221 1070.83984375 144.375 C1073.97644075 148.18656091 1076.98650854 152.09098985 1080 156 C1081.04135733 157.33357495 1082.08303601 158.66689901 1083.125 160 C1084.41708416 161.66634302 1085.70865925 163.3330808 1087 165 C1087.52029785 165.66757324 1088.0405957 166.33514648 1088.57666016 167.02294922 C1090.36843373 169.32409487 1092.15333675 171.6304504 1093.9375 173.9375 C1094.52998535 174.69611328 1095.1224707 175.45472656 1095.73291016 176.23632812 C1096.28382324 176.95111328 1096.83473633 177.66589844 1097.40234375 178.40234375 C1097.90241943 179.04679443 1098.40249512 179.69124512 1098.91772461 180.35522461 C1100 182 1100 182 1100 184 C1100.99 184.33 1101.98 184.66 1103 185 C1104.32421875 186.4609375 1104.32421875 186.4609375 1105.6875 188.375 C1106.21085937 189.09816406 1106.73421875 189.82132813 1107.2734375 190.56640625 C1108.12808594 191.77103516 1108.12808594 191.77103516 1109 193 C1113.81775415 199.73875738 1118.76726001 206.26127098 1124.1171875 212.58984375 C1125.75329768 214.68420055 1126.9330581 216.57972654 1128 219 C1127 220 1127 220 1124.35776731 220.12467116 C1123.16373563 220.12451518 1121.96970395 220.1243592 1120.7394895 220.1241985 C1119.74072194 220.12611563 1119.74072194 220.12611563 1118.72177727 220.12807148 C1116.45820433 220.13116937 1114.19469927 220.12705003 1111.9311285 220.12304783 C1110.29786819 220.12378655 1108.66460803 220.12496414 1107.03134832 220.12654433 C1102.50119513 220.12963435 1097.97106413 220.12642096 1093.44091258 220.12226619 C1088.52841893 220.11884976 1083.61592766 220.12119938 1078.70343357 220.12284368 C1070.07979491 220.12492365 1061.45616312 220.12326307 1052.83252525 220.11920547 C1040.00934247 220.1131886 1027.18616406 220.11286798 1014.36298013 220.11374746 C992.79590936 220.11506368 971.22884165 220.11171118 949.66177177 220.10573006 C928.29682844 220.09982013 906.93188644 220.09595584 885.56694221 220.09487724 C884.90396043 220.09484283 884.24097865 220.09480842 883.55790651 220.09477296 C877.50278204 220.09445977 871.44765756 220.09417208 865.39253308 220.09391499 C850.33871284 220.09327551 835.28489263 220.09231614 820.23107243 220.09113979 C819.54547841 220.09108648 818.85988439 220.09103316 818.1535148 220.09097823 C784.78569234 220.08835533 751.4178707 220.08204721 718.05004883 220.07543945 C706.4675293 220.07314784 694.88500978 220.07087249 683.30249023 220.06866455 C682.22499851 220.06845913 682.22499851 220.06845913 681.12573928 220.06824955 C647.74602399 220.06190801 614.36630855 220.0581807 580.98659281 220.05512976 C578.82013404 220.05493169 576.65367527 220.0547325 574.4872165 220.05453308 C560.13024239 220.05321332 545.77326829 220.05193867 531.41629418 220.05069422 C502.84833808 220.04821758 474.28038201 220.04547589 445.71242595 220.04255217 C444.35187875 220.04241293 442.99133155 220.04227388 441.63078435 220.04213501 C351.08718886 220.03289111 260.54359433 220.01700262 170 220 C169.5978125 219.0409375 169.5978125 219.0409375 169.1875 218.0625 C168.11332248 215.66868314 168.11332248 215.66868314 165 215 C163.45703125 213.06640625 163.45703125 213.06640625 161.8125 210.5625 C158.14000601 205.13862758 154.13559941 200.07514336 150 195 C144.89072743 188.67741433 139.8685594 182.28912968 134.875 175.875 C134.28895996 175.12283203 133.70291992 174.37066406 133.09912109 173.59570312 C131.39379176 171.40141977 129.69616897 169.20136881 128 167 C127.41766602 166.25266602 126.83533203 165.50533203 126.23535156 164.73535156 C125.68588867 164.02088867 125.13642578 163.30642578 124.5703125 162.5703125 C124.07547363 161.93109863 123.58063477 161.29188477 123.07080078 160.63330078 C122 159 122 159 122 157 C121.34 157 120.68 157 120 157 C118.55945979 155.26059253 117.19815535 153.45528806 115.875 151.625 C115.06384599 150.51594139 114.25132246 149.40788325 113.4375 148.30078125 C113.02886719 147.74342285 112.62023437 147.18606445 112.19921875 146.61181641 C109.85358087 143.45914921 107.36582097 140.4206912 104.8984375 137.36328125 C103.07487977 135.09321453 101.28233348 132.80251678 99.5 130.5 C97.02860736 127.30965678 94.52575987 124.14748538 92 121 C76 101.03868472 76 101.03868472 76 98 C74.515 97.505 74.515 97.505 73 97 C71.7890625 95.328125 71.7890625 95.328125 70.625 93.25 C68.55582982 89.56209124 65.99639178 86.97382859 63 84 C61.58985667 82.21470533 60.21583759 80.40041616 58.875 78.5625 C55.46149669 73.94489902 51.99130366 69.38550236 48.4375 64.875 C47.97311523 64.28525391 47.50873047 63.69550781 47.03027344 63.08789062 C44.24850632 59.56314272 41.44231125 56.05893712 38.625 52.5625 C30 41.79012346 30 41.79012346 30 39 C28.515 38.505 28.515 38.505 27 38 C25.7890625 36.328125 25.7890625 36.328125 24.625 34.25 C22.98805797 31.47560581 21.63058816 29.63058816 19.3125 27.3125 C16.93964541 24.93964541 15.99567028 23.1680418 15 20 C14.34 20 13.68 20 13 20 C11.64240067 18.32210126 10.36288195 16.58056912 9.125 14.8125 C7.08794858 11.91957716 5.08121661 9.09667956 2.8046875 6.38671875 C1.05333608 4.07053754 0.57793902 2.76251939 0 0 Z M32 15 C33.02532288 19.8055537 35.39811137 23.39811137 38.875 26.875 C41.33821112 29.33821112 43.30646869 32.00137735 45.37109375 34.80078125 C50.0898032 41.1716048 55.06737302 47.34410471 60.02734375 53.52734375 C63.63645911 58.05124478 67.16924035 62.63422383 70.7109375 67.2109375 C73.78627322 71.17686818 76.89661405 75.1058399 80.0625 79 C83.26283259 82.96468386 86.0914332 87.05264913 88.7734375 91.3828125 C89.17820313 91.91648437 89.58296875 92.45015625 90 93 C90.66 93 91.32 93 92 93 C92.2475 93.53625 92.495 94.0725 92.75 94.625 C94.30652537 97.5823982 96.03435673 100.29724051 98 103 C98.66 103 99.32 103 100 103 C100.27585937 103.58523437 100.55171875 104.17046875 100.8359375 104.7734375 C104.21471052 111.23619126 109.4413642 116.83393952 113.9921875 122.4921875 C117.03713774 126.29541329 120.01743497 130.14780325 123 134 C124.16630536 135.50028095 125.33297348 137.00027995 126.5 138.5 C127.0775 139.24378906 127.655 139.98757812 128.25 140.75390625 C129.4116231 142.24482876 130.5782594 143.73185955 131.75 145.21484375 C135.46774449 149.93671119 138.96246326 154.75582263 142.32421875 159.73828125 C143.94067987 162.03593092 143.94067987 162.03593092 145.94140625 163.94140625 C148.33324384 166.33324384 150.24962907 168.8978756 152.25 171.625 C155.69530587 176.28471057 159.24265207 180.84186639 162.88671875 185.34765625 C164.47487724 187.34092726 166.037097 189.34475458 167.58203125 191.37109375 C168.02490479 191.95189697 168.46777832 192.5327002 168.92407227 193.13110352 C169.78523729 194.26373134 170.64394492 195.39823334 171.49975586 196.53491211 C175.64363785 202.5688778 175.64363785 202.5688778 181.91101895 205.49868466 C183.05466889 205.49806074 184.19831883 205.49743681 185.37662482 205.49679399 C186.33947812 205.5044625 186.33947812 205.5044625 187.321783 205.51228594 C189.48602614 205.52459705 191.64911487 205.5082552 193.81332016 205.49219131 C195.38186374 205.49514864 196.95040483 205.49986166 198.51893848 205.50617731 C202.8555317 205.51849872 207.19175216 205.50571608 211.52831772 205.48906477 C216.23607794 205.47536705 220.94379909 205.48480366 225.65156674 205.49137473 C233.91111218 205.49968458 242.17054259 205.49306935 250.43007469 205.4768219 C262.71176604 205.45272932 274.99338452 205.45147424 287.27509518 205.45498985 C307.9326126 205.46025165 328.59007893 205.44685637 349.24758148 205.42292023 C369.70852663 205.39927247 390.16945052 205.38386056 410.63040924 205.37950897 C411.90141428 205.37923401 413.17241932 205.37895906 414.48193966 205.37867576 C420.93642499 205.37732248 427.39091034 205.37611693 433.84539571 205.37496826 C479.59242283 205.36656099 525.33941567 205.33959901 571.08642578 205.30175781 C582.17795806 205.29259127 593.26949039 205.28348986 604.36102295 205.2746582 C605.04891004 205.27411041 605.73679713 205.27356261 606.44552929 205.27299821 C638.4167575 205.24762731 670.38798809 205.23272128 702.35922373 205.22051902 C704.43452542 205.21972677 706.50982711 205.21893 708.5851288 205.21813231 C722.33812799 205.21285323 736.09112724 205.20775463 749.84412655 205.20277687 C777.86192543 205.19263448 805.87972381 205.18134632 833.89752197 205.16937256 C835.82994825 205.16854882 835.82994825 205.16854882 837.80141344 205.16770844 C923.86762052 205.13089016 1009.93381219 205.06750754 1096 205 C1094.46094044 200.90622966 1092.6714457 198.14383604 1089.8125 194.8125 C1086.02637217 190.31799987 1082.63863793 185.7083787 1079.41015625 180.80078125 C1078.94480469 180.20652344 1078.47945312 179.61226562 1078 179 C1077.34 179 1076.68 179 1076 179 C1075.58621094 178.12214844 1075.58621094 178.12214844 1075.1640625 177.2265625 C1071.78457489 170.7624419 1066.55670678 165.16251033 1062.00390625 159.50390625 C1060.14798238 157.18490586 1058.31834259 154.84851993 1056.5 152.5 C1054.15645474 149.47335859 1051.77971769 146.47822777 1049.375 143.5 C1041.19058702 133.29336824 1033.22150402 122.89331417 1025.68359375 112.19921875 C1023.94648446 109.93009455 1022.02221131 108.01383776 1020 106 C1019.195625 104.63875 1019.195625 104.63875 1018.375 103.25 C1017.694375 102.13625 1017.694375 102.13625 1017 101 C1016.34 101 1015.68 101 1015 101 C1014.58621094 100.12214844 1014.58621094 100.12214844 1014.1640625 99.2265625 C1010.82963618 92.84863296 1005.68396341 87.33763479 1001.19140625 81.75390625 C998.39348023 78.23779601 995.65952275 74.67422768 992.92944336 71.10546875 C990.22860805 67.58053637 987.4925928 64.0861867 984.73413086 60.60620117 C980.45288477 55.2044641 976.38179933 49.74171337 972.4921875 44.046875 C970.58096537 41.42519858 968.32200738 39.25750717 966 37 C964.5 34.5 964.5 34.5 963 32 C962.34 32 961.68 32 961 32 C960.72800781 31.42121094 960.45601562 30.84242188 960.17578125 30.24609375 C959.0034712 28.00663102 957.7035543 26.08257235 956.1875 24.0625 C955.46626953 23.08990234 955.46626953 23.08990234 954.73046875 22.09765625 C950.73836998 16.92533356 950.73836998 16.92533356 944.96694056 14.37664418 C943.2535714 14.37781403 943.2535714 14.37781403 941.50558871 14.37900752 C940.54185992 14.36942187 940.54185992 14.36942187 939.55866187 14.35964258 C937.39823219 14.34428599 935.23961902 14.3646572 933.07924938 14.38476086 C931.5112434 14.38106319 929.94324132 14.37517081 928.37525085 14.36727837 C924.04474311 14.35189241 919.71481963 14.36784138 915.3843553 14.38866904 C910.68152979 14.40580444 905.97876501 14.3939929 901.27592784 14.38578159 C893.02658334 14.3753984 884.77741887 14.38365622 876.52809525 14.40397263 C864.26161444 14.43409875 851.99524758 14.43565623 839.72873653 14.43126268 C819.09641808 14.42468671 798.46417957 14.44142471 777.83188438 14.47134972 C757.39688408 14.50091275 736.96191706 14.52017497 716.52689552 14.52561378 C714.62257059 14.52612933 714.62257059 14.52612933 712.67977446 14.52665529 C706.23263814 14.52834691 699.78550179 14.52985385 693.33836541 14.53128967 C647.64734382 14.54179784 601.95637584 14.57549775 556.26538086 14.62280273 C545.18821224 14.63426095 534.11104355 14.64563773 523.03387451 14.65667725 C522.34687511 14.65736199 521.65987572 14.65804674 520.95205816 14.65875223 C489.02008916 14.69046782 457.08811644 14.70909903 425.15613583 14.72435122 C423.08329705 14.72534154 421.01045826 14.7263375 418.93761948 14.72733462 C405.20090334 14.73393348 391.4641871 14.74030673 377.72747078 14.74652891 C349.74302127 14.75920679 321.75857254 14.77331699 293.77412415 14.7882843 C291.84401204 14.78931398 291.84401204 14.78931398 289.87490777 14.79036445 C203.91658708 14.83638474 117.95829053 14.91561272 32 15 Z " fill="#EBEBEB" transform="translate(24,101)"/>
<path d="M0 0 C8.43431684 -0.04703537 16.86857587 -0.08222076 25.30299282 -0.10362434 C29.22246987 -0.11391422 33.14185509 -0.12778982 37.0612793 -0.15087891 C87.56319831 -0.44026118 87.56319831 -0.44026118 107 5 C107.97066406 5.26425781 108.94132813 5.52851563 109.94140625 5.80078125 C122.13034502 9.48505435 136.97159921 15.83411087 146 25 C147.2669895 26.0670807 148.53810502 27.12927458 149.8125 28.1875 C153.8765335 31.72954755 157.01398145 35.52542893 160 40 C160.38027344 40.56460938 160.76054688 41.12921875 161.15234375 41.7109375 C166.56735151 50.4158179 168.0865499 59.87478778 167 70 C165.3834911 76.89710466 162.79516938 83.03616241 159 89 C159.52464844 89.36609375 160.04929687 89.7321875 160.58984375 90.109375 C183.93299406 106.42239186 183.93299406 106.42239186 194.21484375 113.98828125 C198.44198876 117.04154869 202.72338377 120.01657807 207 123 C226.79249916 136.81208734 226.79249916 136.81208734 232.5 141 C237.71680759 144.82732295 243.0125103 148.53924681 248.3125 152.25 C249.17359375 152.85328125 250.0346875 153.4565625 250.921875 154.078125 C251.74816406 154.655625 252.57445312 155.233125 253.42578125 155.828125 C254.21162598 156.37919922 254.9974707 156.93027344 255.80712891 157.49804688 C257.71081711 158.80193129 259.64308029 160.02232845 261.60546875 161.234375 C262.39566406 161.81703125 263.18585938 162.3996875 264 163 C264 163.99 264 164.98 264 166 C258.09606133 166.19950924 252.19413265 166.34373874 246.28759766 166.43945312 C244.28366877 166.47939641 242.27996867 166.53377347 240.27685547 166.60351562 C227.29853971 167.04367795 219.06431159 166.88551511 209 158 C207.64504813 157.04499637 206.27659998 156.10861407 204.890625 155.19921875 C203.67646461 154.36287669 202.46292191 153.52563718 201.25 152.6875 C199.88804906 151.74865697 198.526069 150.80985617 197.1640625 149.87109375 C196.13780762 149.16315674 196.13780762 149.16315674 195.09082031 148.44091797 C192.98664375 146.99079535 190.88041432 145.54370668 188.7734375 144.09765625 C177.30491991 136.22579022 177.30491991 136.22579022 171.75 132.3125 C167.32645383 129.20426074 162.82948114 126.21468787 158.32421875 123.2265625 C155.26725506 121.18858671 152.23900759 119.11053786 149.21508789 117.02392578 C147.18244486 115.62151223 145.14613443 114.22455158 143.109375 112.828125 C140.35679538 110.93981871 137.62019247 109.03076108 134.890625 107.109375 C133.57323978 106.19744972 132.25554339 105.28597375 130.9375 104.375 C130.04550903 103.73618896 130.04550903 103.73618896 129.13549805 103.08447266 C124.97967731 100.2405542 121.90409503 99.36234078 117 99 C117 101.58992491 117.83128452 102.35727948 119.37890625 104.4140625 C119.88429932 105.08840332 120.38969238 105.76274414 120.91040039 106.45751953 C121.7281897 107.53042236 121.7281897 107.53042236 122.5625 108.625 C123.39285767 109.72303955 123.39285767 109.72303955 124.23999023 110.84326172 C127.40210545 114.99547806 130.64186591 119.0108868 134.15234375 122.875 C137.24769107 126.43497662 140.11262232 130.17818468 143.00610352 133.90283203 C143.45010498 134.47372559 143.89410645 135.04461914 144.3515625 135.6328125 C144.78629883 136.19258789 145.22103516 136.75236328 145.66894531 137.32910156 C147.01910246 139.02397968 148.4215004 140.66330341 149.8359375 142.3046875 C152 145 152 145 152 147 C152.66 147 153.32 147 154 147 C155.5078125 148.6796875 155.5078125 148.6796875 157.125 150.875 C157.66382813 151.59429687 158.20265625 152.31359375 158.7578125 153.0546875 C160 155 160 155 160 157 C160.66 157 161.32 157 162 157 C165.11997802 160.30350614 166 161.32409833 166 166 C161.14387639 166.19875516 156.2901499 166.34337321 151.4309082 166.43945312 C149.78074889 166.47952358 148.13087078 166.53400048 146.48168945 166.60351562 C132.84077629 167.16381891 132.84077629 167.16381891 128.50585938 164.4230957 C126.70244776 162.38049113 125.36009994 160.35631464 124 158 C123.09344671 156.8335014 122.16964306 155.68013932 121.2265625 154.54296875 C120.35733262 153.42606565 119.49016552 152.30755435 118.625 151.1875 C115.18162304 146.7625997 111.69688013 142.38447496 108.125 138.0625 C105.70226359 135.1258498 103.3644334 132.1856385 101.1875 129.0625 C99.27954841 126.39136777 97.34777025 124.26951125 95 122 C92 118.35714286 92 118.35714286 92 116 C91.34 116 90.68 116 90 116 C88.3359375 114.1640625 88.3359375 114.1640625 86.375 111.625 C85.66085937 110.70976562 84.94671875 109.79453125 84.2109375 108.8515625 C83.48132813 107.91054687 82.75171875 106.96953125 82 106 C80.66980067 104.33083096 79.33655207 102.66408657 78 101 C64 83.5 64 83.5 50 66 C49.26265625 65.11957031 48.5253125 64.23914063 47.765625 63.33203125 C46 61 46 61 46 59 C45.34 59 44.68 59 44 59 C42.4921875 57.3203125 42.4921875 57.3203125 40.875 55.125 C40.33617187 54.40570313 39.79734375 53.68640625 39.2421875 52.9453125 C38 51 38 51 38 49 C37.34 49 36.68 49 36 49 C34.7109375 47.5390625 34.7109375 47.5390625 33.375 45.625 C32.92898438 44.99851563 32.48296875 44.37203125 32.0234375 43.7265625 C31 42 31 42 31 40 C30.4225 39.79375 29.845 39.5875 29.25 39.375 C26.15522364 37.48374778 24.8081237 35.09964063 23 32 C23 31.34 23 30.68 23 30 C22.40703125 29.7525 21.8140625 29.505 21.203125 29.25 C18.65171134 27.80238941 17.48320638 26.3558145 15.75 24 C13.16540947 20.54832103 10.53166337 17.15955212 7.8125 13.8125 C0 4.04308252 0 4.04308252 0 0 Z M57 25 C56.67 25.66 56.34 26.32 56 27 C56.556875 27.886875 57.11375 28.77375 57.6875 29.6875 C58.00074219 30.18636719 58.31398438 30.68523437 58.63671875 31.19921875 C60.0603566 33.16828801 60.0603566 33.16828801 62.31640625 35.29296875 C65.23624332 38.23830658 67.72868353 41.34161506 70.25 44.625 C71.21650292 45.87052554 72.18396377 47.11530829 73.15234375 48.359375 C73.6304248 48.97361328 74.10850586 49.58785156 74.60107422 50.22070312 C77.33716472 53.70074284 80.17183126 57.09999749 82.9921875 60.51171875 C85.38169805 63.47303825 87.61973241 66.52491872 89.80859375 69.63671875 C90.39833984 70.31154297 90.39833984 70.31154297 91 71 C91.66 71 92.32 71 93 71 C93.33 71.99 93.66 72.98 94 74 C101.80479259 75.01286106 109.4528867 75.10734786 117.3125 74.875 C118.46556641 74.8646875 119.61863281 74.854375 120.80664062 74.84375 C127.58207892 74.85537753 127.58207892 74.85537753 133.23046875 71.6328125 C136.11679329 67.33836937 136.4049405 64.10225029 136 59 C134.22345315 52.81105146 132.02267303 48.18556086 127 44 C126.10152344 43.21367187 125.20304688 42.42734375 124.27734375 41.6171875 C105.21368923 25.77067052 80.62626822 24.56426964 57 25 Z " fill="#EDEDED" transform="translate(819,128)"/>
<path d="M0 0 C4.75047352 -0.12391876 9.49999961 -0.21448561 14.25170898 -0.2746582 C15.86678461 -0.29974959 17.48174726 -0.33383126 19.09643555 -0.37719727 C21.42264706 -0.43809286 23.74735359 -0.46626124 26.07421875 -0.48828125 C27.15107185 -0.52699089 27.15107185 -0.52699089 28.24967957 -0.56648254 C32.1953983 -0.56867284 33.80600035 -0.16113228 36.88208008 2.39379883 C37.58099365 3.25384521 38.27990723 4.1138916 39 5 C39.598125 5.721875 40.19625 6.44375 40.8125 7.1875 C42 9 42 9 42 11 C42.99 11.33 43.98 11.66 45 12 C46.38671875 13.55859375 46.38671875 13.55859375 47.6875 15.4375 C48.12449219 16.05496094 48.56148438 16.67242187 49.01171875 17.30859375 C50 19 50 19 50 21 C50.99 21.33 51.98 21.66 53 22 C54.54296875 23.71484375 54.54296875 23.71484375 56.1875 25.9375 C56.80109375 26.7521875 57.4146875 27.566875 58.046875 28.40625 C58.69140625 29.2621875 59.3359375 30.118125 60 31 C61.30610313 32.65091436 62.61866207 34.29674099 63.9375 35.9375 C64.60652344 36.77152344 65.27554688 37.60554688 65.96484375 38.46484375 C66.63644531 39.30144531 67.30804688 40.13804687 68 41 C69.99412276 43.49168166 71.98729948 45.98411809 73.98046875 48.4765625 C75.37764847 50.22236153 76.77617492 51.96708329 78.17578125 53.7109375 C78.88089844 54.59007812 79.58601563 55.46921875 80.3125 56.375 C80.94800781 57.16648438 81.58351563 57.95796875 82.23828125 58.7734375 C83.38523573 60.2230252 84.49011324 61.70725201 85.54296875 63.2265625 C86.97166965 65.28626252 86.97166965 65.28626252 90 66 C91.85594728 66.08840088 93.71495117 66.11762704 95.57299805 66.11352539 C96.71395432 66.11344986 97.85491058 66.11337433 99.03044128 66.11329651 C100.26176285 66.10813522 101.49308441 66.10297394 102.76171875 66.09765625 C104.02264847 66.0962413 105.28357819 66.09482635 106.5827179 66.09336853 C109.93151709 66.08871575 113.28024811 66.07973342 116.62902832 66.06866455 C120.04760143 66.05842687 123.46618159 66.05386586 126.88476562 66.04882812 C133.58986261 66.03779099 140.29492737 66.02104686 147 66 C145.47907482 62.84954152 143.78711629 60.33523938 141.5625 57.625 C138.69208557 54.09656637 135.85747599 50.5469997 133.06494141 46.95703125 C128.88094837 41.58206111 124.61345051 36.30288456 120.1875 31.125 C115.76476159 25.94958632 111.5745186 20.68004717 107.671875 15.1015625 C105.32417554 11.74972652 102.95660841 8.8546564 100 6 C98 3 98 3 98 0 C102.75050819 -0.09913574 107.50040976 -0.17159264 112.25170898 -0.21972656 C113.86672458 -0.23979892 115.48166789 -0.2670633 117.09643555 -0.30175781 C119.42254501 -0.35047215 121.74769093 -0.37301154 124.07421875 -0.390625 C124.79212082 -0.41127014 125.51002289 -0.43191528 126.24967957 -0.45318604 C131.14959944 -0.45536202 133.54088799 0.56088979 137 4 C138.703125 5.97265625 138.703125 5.97265625 140.25 8.0625 C142.97865603 11.68080537 145.79360238 15.19961683 148.6875 18.6875 C151.01537474 21.51167291 153.28748599 24.28423906 155.25 27.375 C156.93871371 30.09397231 156.93871371 30.09397231 159.375 32.375 C162.1038415 35.1038415 164.30410857 37.96137608 166.57421875 41.0703125 C167.78773471 42.71271492 169.07443465 44.30063142 170.375 45.875 C172 48 172 48 172 50 C172.99 50.33 173.98 50.66 175 51 C176.38671875 52.55859375 176.38671875 52.55859375 177.6875 54.4375 C178.12449219 55.05496094 178.56148437 55.67242187 179.01171875 56.30859375 C180 58 180 58 180 60 C180.66 60 181.32 60 182 60 C183.6640625 61.8359375 183.6640625 61.8359375 185.625 64.375 C186.69814453 65.74978516 186.69814453 65.74978516 187.79296875 67.15234375 C188.52128906 68.09207031 189.24960937 69.03179687 190 70 C191.3090744 71.64855932 192.62149314 73.2944694 193.9375 74.9375 C194.59492188 75.75992188 195.25234375 76.58234375 195.9296875 77.4296875 C198.12428951 80.1543066 200.34135811 82.85948326 202.5625 85.5625 C205.93917299 89.67854793 209.24621851 93.83883406 212.4921875 98.05859375 C213.77509134 99.71041553 215.10192794 101.32796444 216.4375 102.9375 C218 105 218 105 218 107 C218.99 107.33 219.98 107.66 221 108 C222.38671875 109.55859375 222.38671875 109.55859375 223.6875 111.4375 C224.12449219 112.05496094 224.56148437 112.67242187 225.01171875 113.30859375 C226 115 226 115 226 117 C226.99 117.33 227.98 117.66 229 118 C230.54296875 119.71484375 230.54296875 119.71484375 232.1875 121.9375 C233.10789062 123.15953125 233.10789062 123.15953125 234.046875 124.40625 C234.69140625 125.2621875 235.3359375 126.118125 236 127 C237.30610313 128.65091436 238.61866207 130.29674099 239.9375 131.9375 C240.60652344 132.77152344 241.27554688 133.60554687 241.96484375 134.46484375 C242.63644531 135.30144531 243.30804688 136.13804687 244 137 C245.33365035 138.66641301 246.66698482 140.33307886 248 142 C248.98226562 143.22589844 248.98226562 143.22589844 249.984375 144.4765625 C251.37483769 146.21733555 252.7599368 147.96240171 254.140625 149.7109375 C255.18476562 151.02964844 255.18476562 151.02964844 256.25 152.375 C256.87390625 153.16648437 257.4978125 153.95796875 258.140625 154.7734375 C259.98322364 157.05283469 259.98322364 157.05283469 262.18359375 159.15234375 C264.13263738 161.13491931 264.71642716 162.25879592 265 165 C262.23066338 167.76933662 253.33336421 166.59316471 249.46533203 166.6796875 C247.83532958 166.72617598 246.20578425 166.79418536 244.57763672 166.88476562 C231.11195824 167.62080516 231.11195824 167.62080516 226.06054688 163.74414062 C223.75974087 160.940573 221.86318194 158.10777899 220 155 C219.03210844 153.73312941 218.04559154 152.47999448 217.03125 151.25 C216.18661219 150.16735872 215.34284728 149.08403581 214.5 148 C210.39178132 142.74290348 206.21671992 137.55074995 201.97265625 132.40234375 C201.32167969 131.60957031 200.67070312 130.81679688 200 130 C199.25621094 129.11441406 198.51242187 128.22882813 197.74609375 127.31640625 C196 125 196 125 196 123 C195.01 122.67 194.02 122.34 193 122 C191.45703125 120.28515625 191.45703125 120.28515625 189.8125 118.0625 C188.89210938 116.84046875 188.89210938 116.84046875 187.953125 115.59375 C187.30859375 114.7378125 186.6640625 113.881875 186 113 C184.69389687 111.34908564 183.38133793 109.70325901 182.0625 108.0625 C178 103 178 103 176.51573181 100.56874084 C173.82264001 96.52674926 171.75502667 93.510409 166.96473694 92.11726379 C163.3029834 91.84375736 159.76273579 91.87446307 156.09375 92.0234375 C154.76002337 92.04212207 153.42622744 92.05634098 152.09240723 92.0663147 C148.60528314 92.10424532 145.12241922 92.20221878 141.63696289 92.31335449 C138.07106158 92.41622095 134.50446177 92.46144224 130.9375 92.51171875 C123.95659847 92.61851324 116.97850444 92.78885227 110 93 C111.7297801 95.20757393 113.46036676 97.41450768 115.19140625 99.62109375 C115.67468384 100.23803101 116.15796143 100.85496826 116.65588379 101.49060059 C120.38622349 106.24385105 124.18390261 110.93523887 128.02734375 115.59765625 C128.67832031 116.39042969 129.32929688 117.18320313 130 118 C130.74378906 118.88558594 131.48757813 119.77117187 132.25390625 120.68359375 C134 123 134 123 134 125 C134.66 125 135.32 125 136 125 C137.6640625 126.8359375 137.6640625 126.8359375 139.625 129.375 C140.33914063 130.29023438 141.05328125 131.20546875 141.7890625 132.1484375 C142.88347656 133.55996094 142.88347656 133.55996094 144 135 C145.33019933 136.66916904 146.66344793 138.33591343 148 140 C148.65742188 140.82242188 149.31484375 141.64484375 149.9921875 142.4921875 C151.34903282 144.18692426 152.70847808 145.87958222 154.0703125 147.5703125 C156.05628175 150.03955944 158.03136017 152.51692137 160 155 C160.60585938 155.75925781 161.21171875 156.51851562 161.8359375 157.30078125 C162.65964844 158.35845703 162.65964844 158.35845703 163.5 159.4375 C163.9846875 160.05496094 164.469375 160.67242187 164.96875 161.30859375 C166 163 166 163 166 166 C161.08876411 166.09898615 156.17811062 166.17152247 151.26611328 166.21972656 C149.59576298 166.23982393 147.92548287 166.26710683 146.25537109 166.30175781 C143.8523628 166.35036119 141.45028566 166.37298656 139.046875 166.390625 C138.30193787 166.41127014 137.55700073 166.43191528 136.78948975 166.45318604 C133.2472998 166.45471394 131.35786229 166.27157322 128.49707031 164.10058594 C127 162 127 162 127 160 C126.01 159.67 125.02 159.34 124 159 C120 153.62857143 120 153.62857143 120 151 C119.39671875 150.7421875 118.7934375 150.484375 118.171875 150.21875 C115.78201052 148.87767497 114.80472291 147.73148465 113.25 145.5 C107.55011841 137.57159327 101.27340832 130.08650618 95.078125 122.54296875 C94.39234375 121.70378906 93.7065625 120.86460937 93 120 C92.25234375 119.10925781 91.5046875 118.21851563 90.734375 117.30078125 C89 115 89 115 89 113 C88.34 113 87.68 113 87 113 C85.4921875 111.3203125 85.4921875 111.3203125 83.875 109.125 C83.33617187 108.40570313 82.79734375 107.68640625 82.2421875 106.9453125 C81 105 81 105 81 103 C80.34 103 79.68 103 79 103 C77.4140625 100.953125 77.4140625 100.953125 75.625 98.25 C73.31619682 94.77153883 70.95560764 91.93359194 68 89 C66.24354397 86.8286331 64.51752445 84.64821885 62.8125 82.4375 C58.65223369 77.09107372 54.42182926 71.8134731 50.1171875 66.58203125 C46.05009249 61.62197627 42.06237296 56.59783693 38.07421875 51.57421875 C35.20662784 47.97105342 32.33675335 44.3789621 29.34375 40.87890625 C28.89241699 40.3482959 28.44108398 39.81768555 27.97607422 39.27099609 C26.6897894 37.76343495 25.39587175 36.2623962 24.1015625 34.76171875 C22 32 22 32 20.8984375 29.20703125 C20.60195313 28.47871094 20.30546875 27.75039062 20 27 C19.01 26.67 18.02 26.34 17 26 C15.45703125 24.28515625 15.45703125 24.28515625 13.8125 22.0625 C11.176293 18.55875142 8.50100766 15.10219459 5.75 11.6875 C4.495109 10.12892538 3.24471306 8.56671492 2 7 C1.40703125 6.30519531 0.8140625 5.61039063 0.203125 4.89453125 C-0.39242187 3.95673828 -0.39242187 3.95673828 -1 3 C-0.67 2.01 -0.34 1.02 0 0 Z " fill="#EDEDED" transform="translate(248,128)"/>
<path d="M0 0 C5.08603552 -0.19942229 10.16974432 -0.34368638 15.25878906 -0.43945312 C16.98542975 -0.47941271 18.71180446 -0.53380384 20.4375 -0.60351562 C36.60492408 -1.2397337 36.60492408 -1.2397337 42.734375 3.6328125 C44.18785978 5.05698171 45.61260777 6.51137018 47 8 C48.26571294 9.10612168 49.5436431 10.19849118 50.8359375 11.2734375 C52.01703844 12.30567663 53.19672009 13.3395419 54.375 14.375 C62.55852028 21.51434452 70.87926 28.46903131 79.3125 35.3125 C85.68947377 40.51669699 91.87823042 45.93246777 98.0859375 51.3359375 C105.74821353 57.99742646 113.42993595 64.60019371 121.3984375 70.89453125 C124.53030064 73.42917725 127.57725059 76.05283258 130.625 78.6875 C135.65461909 83.0341099 140.75990646 87.26842255 145.9375 91.4375 C151.97305486 96.30083317 157.86626291 101.30131198 163.70239258 106.40161133 C168.15175734 110.28440358 172.68253144 114.04979285 177.26953125 117.76953125 C183.80949507 123.11190513 190.22816522 128.60404946 196.62109375 134.12109375 C203.93744957 140.46019489 203.93744957 140.46019489 211.5 146.5 C215.5828639 149.6317422 219.55631036 152.88322026 223.5 156.1875 C224.12455078 156.69925781 224.74910156 157.21101562 225.39257812 157.73828125 C228.49011841 160.35901301 230.29211323 161.98703282 231 166 C225.6474903 166.22447618 220.29778517 166.38669731 214.94165039 166.49438477 C213.12475809 166.53931987 211.30818518 166.60049558 209.49243164 166.67895508 C192.48725703 167.39471621 192.48725703 167.39471621 185.55078125 161.74609375 C183.9982391 160.19899856 182.47935326 158.61722125 181 157 C179.34555269 155.48653316 177.68030849 153.98470238 176 152.5 C175.1853125 151.7575 174.370625 151.015 173.53125 150.25 C170.02336108 147.13187651 166.37135511 144.2046824 162.72265625 141.25390625 C160.05862647 139.04853296 157.49211558 136.7682369 154.9375 134.4375 C143.87710566 123.63937147 143.87710566 123.63937147 129.56713867 119.77294922 C128.50641647 119.77310028 127.44569427 119.77325134 126.35282898 119.77340698 C125.2193251 119.78372955 124.08582123 119.79405212 122.91796875 119.8046875 C121.74865311 119.8075174 120.57933746 119.81034729 119.37458801 119.81326294 C115.64545392 119.82444438 111.91656132 119.84954566 108.1875 119.875 C105.65690451 119.88503241 103.12630526 119.89415781 100.59570312 119.90234375 C94.39705323 119.92437708 88.19854387 119.95783466 82 120 C82.78171694 122.23563128 83.5674301 124.46972242 84.35546875 126.703125 C84.79270264 127.94739258 85.22993652 129.19166016 85.68041992 130.47363281 C87.06456381 134.17253648 88.70908362 137.58973312 90.52734375 141.0859375 C92.57533544 145.13846217 94.48774129 149.24557139 96.375 153.375 C96.74536377 154.16100586 97.11572754 154.94701172 97.49731445 155.75683594 C97.83593506 156.50481445 98.17455566 157.25279297 98.5234375 158.0234375 C98.83200684 158.69294434 99.14057617 159.36245117 99.45849609 160.05224609 C100.10746551 162.38654637 99.76663635 163.73295584 99 166 C94.78253675 166.0989211 90.56568879 166.17149012 86.34741211 166.21972656 C84.91272214 166.23983525 83.47811407 166.26712673 82.04370117 166.30175781 C79.98075161 166.3503146 77.91888569 166.37297406 75.85546875 166.390625 C74.61434326 166.41157227 73.37321777 166.43251953 72.09448242 166.45410156 C69 166 69 166 67.11987305 164.09887695 C66.02426193 162.04547195 65.26804028 160.17143863 64.625 157.9375 C62.88820852 152.39977219 60.45887111 147.24815303 58 142 C55.38157937 136.40517154 53.13314127 130.73114346 51 124.9375 C49.22830387 120.12994592 47.37833263 115.47287962 44.98046875 110.94140625 C43.28370635 107.58168149 41.91344386 104.08551607 40.484375 100.60546875 C38.68143588 96.22622451 36.84131333 91.86321444 35 87.5 C27.61566832 69.97609097 27.61566832 69.97609097 24.421875 62.125 C21.1312738 54.05252315 17.71312397 46.05808427 14.1328125 38.10986328 C10.93324305 30.95561364 7.97712182 23.70704735 5.05712891 16.43481445 C3.55221316 12.70392015 2.05725814 9.10838586 0.17578125 5.546875 C-1 3 -1 3 0 0 Z M49 45 C50.6528989 54.65079678 55.15538775 63.5844769 59.58984375 72.2265625 C62.86076867 78.65968354 65.56282543 85.30562102 68.16796875 92.03125 C68.83986593 93.96522095 68.83986593 93.96522095 70 95 C72.8116338 95.08861992 75.59858255 95.11522355 78.41015625 95.09765625 C79.67320839 95.09553383 79.67320839 95.09553383 80.96177673 95.09336853 C83.66205335 95.08775263 86.36224828 95.07519748 89.0625 95.0625 C90.88867068 95.05748705 92.71484266 95.05292379 94.54101562 95.04882812 C99.02737542 95.03777804 103.51367384 95.02050279 108 95 C107.22454834 94.05398926 106.44909668 93.10797852 105.65014648 92.13330078 C105.21395493 91.60116974 104.77776337 91.0690387 104.32835388 90.52078247 C102.44143252 88.36051707 100.31488754 86.64498097 98.0625 84.875 C93.6311614 81.33231477 89.29291274 77.70911412 85 74 C80.81986517 70.39369811 76.6085178 66.84368199 72.3125 63.375 C67.54545775 59.50925968 63.00848647 55.43323895 58.5078125 51.26171875 C54.31582016 46.88623281 54.31582016 46.88623281 49 45 Z " fill="#EFEFEF" transform="translate(449,128)"/>
<path d="M0 0 C10.93150395 8.49513989 21.04791183 18.6182053 26.25683594 31.71679688 C25.92683594 32.70679688 25.59683594 33.69679687 25.25683594 34.71679688 C20.97038564 34.91579287 16.68643343 35.06027271 12.39672852 35.15625 C10.94052267 35.19628315 9.48463443 35.25073321 8.02954102 35.3203125 C-4.07093936 35.88408959 -4.07093936 35.88408959 -8.20678711 32.99707031 C-9.95851037 30.98684343 -11.34690319 28.98198969 -12.74316406 26.71679688 C-14.39056482 25.03108447 -16.05382484 23.36047828 -17.74316406 21.71679688 C-18.30003906 21.03617188 -18.85691406 20.35554688 -19.43066406 19.65429688 C-26.18056568 13.9989739 -35.13808811 12.43373517 -43.74316406 12.71679688 C-48.88944214 13.51560103 -52.58346119 14.557094 -56.30566406 18.27929688 C-59.04013523 22.91600886 -59.32434516 26.37169195 -58.74316406 31.71679688 C-55.74323923 40.00230356 -48.59821488 43.16227088 -41.12988281 47.09179688 C-26.77942032 53.73745244 -10.37368986 55.64715845 5.09356689 58.27542114 C58.89879002 67.43427497 58.89879002 67.43427497 75.25683594 85.71679688 C76.01996094 86.41804688 76.78308594 87.11929688 77.56933594 87.84179688 C87.11189938 98.05012056 91.97717992 107.54573197 91.53808594 121.66992188 C90.49076434 133.0159059 86.841363 141.63739267 78.50683594 149.46679688 C64.36528759 161.01528248 46.78402073 162.04078162 29.25683594 160.71679688 C12.65668609 158.7913977 -2.29067826 151.9149114 -14.74316406 140.71679688 C-14.74316406 140.05679688 -14.74316406 139.39679688 -14.74316406 138.71679688 C-15.57267578 138.43449219 -15.57267578 138.43449219 -16.41894531 138.14648438 C-19.83223704 136.04687971 -21.6713218 133.09976178 -23.93066406 129.84179688 C-24.38119141 129.21660156 -24.83171875 128.59140625 -25.29589844 127.94726562 C-27.47203877 124.8608657 -28.97691648 122.46164661 -29.74316406 118.71679688 C-30.40316406 118.71679688 -31.06316406 118.71679688 -31.74316406 118.71679688 C-32.12535173 117.0606503 -32.45711508 115.39222663 -32.74316406 113.71679688 C-29.97242772 110.94606053 -22.43179276 112.08965124 -18.49023438 111.98217773 C-17.00549768 111.93071848 -15.52136602 111.85592649 -14.0390625 111.7565918 C-9.0331272 111.427313 -4.61684038 111.41233873 0.25683594 112.71679688 C3.4609162 115.61095342 5.24185265 118.08900713 7.44702148 121.78466797 C12.19526581 129.47742588 22.01773044 132.92595277 30.25683594 135.71679688 C38.38037321 137.34765852 46.78152983 137.87457372 54.25683594 133.71679688 C58.25443161 129.69064695 60.366534 125.28558465 60.63183594 119.59179688 C60.60828908 114.78823825 58.96970791 111.67059335 56.44824219 107.66210938 C55.25683594 105.71679688 55.25683594 105.71679688 54.25683594 102.71679688 C52.60434107 102.01573844 50.93316011 101.35879337 49.25683594 100.71679688 C48.14553483 99.95628526 47.04224998 99.18401017 45.94433594 98.40429688 C31.96993239 89.67863659 13.17017063 88.1751777 -2.68066406 85.21679688 C-42.79919906 77.71834857 -42.79919906 77.71834857 -56.55566406 70.96679688 C-57.25159668 70.63099609 -57.9475293 70.29519531 -58.66455078 69.94921875 C-68.2694473 65.14787577 -77.61888718 58.709133 -83.74316406 49.71679688 C-83.74316406 49.05679688 -83.74316406 48.39679688 -83.74316406 47.71679688 C-84.40316406 47.71679688 -85.06316406 47.71679688 -85.74316406 47.71679688 C-90.92278964 36.65889856 -92.4842076 26.62011721 -88.74316406 14.71679688 C-87.11816406 11.15429688 -87.11816406 11.15429688 -85.74316406 8.71679688 C-85.08316406 8.71679688 -84.42316406 8.71679688 -83.74316406 8.71679688 C-83.57816406 8.03617188 -83.41316406 7.35554688 -83.24316406 6.65429688 C-78.64580793 -2.34885888 -69.08780844 -5.9392618 -60.11035156 -9.25585938 C-40.91246935 -15.13555265 -16.27523001 -11.98075755 0 0 Z " fill="#ECECEC" transform="translate(680.7431640625,136.283203125)"/>
<path d="M0 0 C15.23763064 -0.02332961 30.47526046 -0.04097948 45.71290493 -0.05181217 C52.78753187 -0.056975 59.86214774 -0.06401744 66.93676758 -0.07543945 C73.75778878 -0.08644681 80.57879844 -0.09227618 87.39982796 -0.09487724 C90.00866948 -0.09673205 92.61751033 -0.1003537 95.22634697 -0.10573006 C98.86632552 -0.11293643 102.50625575 -0.11399111 106.14624023 -0.11352539 C107.23668137 -0.11712067 108.3271225 -0.12071594 109.4506073 -0.12442017 C110.43643799 -0.1230455 111.42226868 -0.12167084 112.43797302 -0.12025452 C113.73078768 -0.12163721 113.73078768 -0.12163721 115.04971981 -0.12304783 C117 0 117 0 118 1 C117.57176077 6.35299041 116.56579974 11.60327591 115.5625 16.875 C115.31628906 18.17179687 115.07007813 19.46859375 114.81640625 20.8046875 C114 24 114 24 112 26 C109.67147827 26.2784729 109.67147827 26.2784729 106.72412109 26.31884766 C105.6231308 26.33871735 104.5221405 26.35858704 103.38778687 26.37905884 C102.19505157 26.39061005 101.00231628 26.40216125 99.7734375 26.4140625 C98.55548492 26.43342865 97.33753235 26.4527948 96.08267212 26.4727478 C92.1801867 26.53268215 88.27767201 26.57898471 84.375 26.625 C81.7343619 26.66316699 79.09373643 26.70221795 76.453125 26.7421875 C69.96886174 26.83839504 63.48452292 26.92340176 57 27 C57.53109375 27.66386719 58.0621875 28.32773438 58.609375 29.01171875 C60.73958333 31.67447917 62.86979167 34.33723958 65 37 C65.70656738 37.88316895 66.41313477 38.76633789 67.14111328 39.67626953 C68.42510102 41.28133852 69.70877251 42.88666051 70.9921875 44.4921875 C72.34903282 46.18692426 73.70847808 47.87958222 75.0703125 49.5703125 C78.74736822 54.14216505 82.34384216 58.74270826 85.7734375 63.50390625 C86.94788449 65.14400401 86.94788449 65.14400401 89 66 C91.50236916 66.09288682 93.97662686 66.12582412 96.47900391 66.11352539 C97.6352401 66.11374443 97.6352401 66.11374443 98.81483459 66.1139679 C101.36877229 66.11326989 103.92263751 66.10548275 106.4765625 66.09765625 C108.24490316 66.09579167 110.01324433 66.09436796 111.78158569 66.09336853 C116.44064759 66.0895465 121.09967842 66.07971888 125.75872803 66.06866455 C130.51102274 66.05844369 135.26332247 66.05386946 140.015625 66.04882812 C149.34376367 66.03809634 158.67187925 66.02102367 168 66 C169.81207047 69.34571156 170.16435114 70.93150435 169.390625 74.6953125 C169.12378906 76.01595703 169.12378906 76.01595703 168.8515625 77.36328125 C168.65304687 78.27464844 168.45453125 79.18601562 168.25 80.125 C167.97542969 81.50365234 167.97542969 81.50365234 167.6953125 82.91015625 C166.27411874 89.72588126 166.27411874 89.72588126 164 92 C161.9329071 92.23377991 161.9329071 92.23377991 159.35424805 92.21118164 C158.38952072 92.20780289 157.4247934 92.20442413 156.43083191 92.20094299 C154.8621209 92.18075356 154.8621209 92.18075356 153.26171875 92.16015625 C152.18880081 92.15495468 151.11588287 92.14975311 150.01045227 92.14439392 C146.5693327 92.12653238 143.12850645 92.09537204 139.6875 92.0625 C136.25723304 92.03486563 132.82700971 92.01013449 129.39668274 91.99131775 C127.25975217 91.979085 125.12284403 91.96150527 122.98600769 91.93800354 C121.52473198 91.92820717 121.52473198 91.92820717 120.03393555 91.91821289 C119.18059128 91.90995987 118.32724701 91.90170685 117.44804382 91.89320374 C114.87648126 92.00538852 112.50722887 92.43222744 110 93 C110.8353125 94.01707031 110.8353125 94.01707031 111.6875 95.0546875 C116.83670043 101.33462451 121.93790839 107.64974193 127 114 C128.33301518 115.66692114 129.66634965 117.33358699 131 119 C131.65355469 119.81726563 132.30710937 120.63453125 132.98046875 121.4765625 C134.37764847 123.22236153 135.77617492 124.96708329 137.17578125 126.7109375 C137.88089844 127.59007812 138.58601562 128.46921875 139.3125 129.375 C139.94800781 130.16648437 140.58351563 130.95796875 141.23828125 131.7734375 C141.81964844 132.50820313 142.40101563 133.24296875 143 134 C143.57105469 134.71414063 144.14210938 135.42828125 144.73046875 136.1640625 C146 138 146 138 146 140 C172.73 140.33 199.46 140.66 227 141 C227.91090211 144.64360843 228.10269162 145.60108527 227.29296875 148.96875 C227.11830078 149.70480469 226.94363281 150.44085938 226.76367188 151.19921875 C226.57353516 151.95847656 226.38339844 152.71773437 226.1875 153.5 C225.91969727 154.63888672 225.91969727 154.63888672 225.64648438 155.80078125 C224.75378632 159.48114651 223.73075763 162.62068867 222 166 C210.23890603 166.16225497 198.47807868 166.28660235 186.71609306 166.3626852 C181.25433673 166.39920332 175.7933466 166.44872835 170.33203125 166.52807617 C165.06055306 166.60418573 159.78981134 166.64600098 154.51782608 166.6641407 C152.50750255 166.67706588 150.49721894 166.70230679 148.48720932 166.7401104 C145.66881279 166.79100531 142.85345077 166.79792082 140.03466797 166.79467773 C138.79064964 166.83242813 138.79064964 166.83242813 137.52149963 166.87094116 C134.03636266 166.82760909 131.86703449 166.70672831 129.10886002 164.45851326 C125 159.83490896 125 159.83490896 125 157 C124.01 156.67 123.02 156.34 122 156 C120.45703125 154.28515625 120.45703125 154.28515625 118.8125 152.0625 C118.19890625 151.2478125 117.5853125 150.433125 116.953125 149.59375 C116.30859375 148.7378125 115.6640625 147.881875 115 147 C113.69389687 145.34908564 112.38133793 143.70325901 111.0625 142.0625 C110.39347656 141.22847656 109.72445312 140.39445313 109.03515625 139.53515625 C108.36355469 138.69855469 107.69195313 137.86195313 107 137 C105.66634965 135.33358699 104.33301518 133.66692114 103 132 C102.34515625 131.18144531 101.6903125 130.36289062 101.015625 129.51953125 C97.67708333 125.34635417 94.33854167 121.17317708 91 117 C90.26265625 116.11957031 89.5253125 115.23914063 88.765625 114.33203125 C87 112 87 112 87 110 C86.39671875 109.7421875 85.7934375 109.484375 85.171875 109.21875 C82.78201052 107.87767497 81.80472291 106.73148465 80.25 104.5 C77.95338139 101.30319923 75.59251896 98.19246475 73.125 95.125 C72.44695312 94.28195313 71.76890625 93.43890625 71.0703125 92.5703125 C70.38710938 91.72210938 69.70390625 90.87390625 69 90 C67.66603377 88.33383985 66.33269589 86.66717642 65 85 C62.99018174 82.4867439 60.97938304 79.97431784 58.96484375 77.46484375 C55.13522827 72.69073736 51.3484431 67.88832076 47.609375 63.04296875 C46.13683026 61.17369472 44.61587922 59.36459444 43.0625 57.5625 C41 55 41 55 41 53 C40.34 53 39.68 53 39 53 C37.4921875 51.3203125 37.4921875 51.3203125 35.875 49.125 C35.33617187 48.40570313 34.79734375 47.68640625 34.2421875 46.9453125 C33 45 33 45 33 43 C32.34 43 31.68 43 31 43 C29.7109375 41.5390625 29.7109375 41.5390625 28.375 39.625 C27.92898438 38.99851563 27.48296875 38.37203125 27.0234375 37.7265625 C26 36 26 36 26 34 C24.515 33.505 24.515 33.505 23 33 C21.61328125 31.44140625 21.61328125 31.44140625 20.3125 29.5625 C19.87550781 28.94503906 19.43851563 28.32757813 18.98828125 27.69140625 C18 26 18 26 18 24 C17.40703125 23.7525 16.8140625 23.505 16.203125 23.25 C13.65171134 21.80238941 12.48320638 20.3558145 10.75 18 C7.45902639 13.5786485 3.97753274 9.36165229 0.40625 5.1640625 C-0.0578125 4.44992188 -0.521875 3.73578125 -1 3 C-0.67 2.01 -0.34 1.02 0 0 Z " fill="#F2F2F2" transform="translate(694,128)"/>
<path d="M0 0 C12.95851679 9.24061365 24.66159866 19.44894538 35.6171875 31 C36.13933838 31.53987549 36.66148926 32.07975098 37.19946289 32.63598633 C40.08298361 35.74873886 40.8046875 36.58057107 40.8046875 41 C36.10923876 41.17420329 31.41570471 41.3005956 26.71777344 41.38452148 C25.12303878 41.41953336 23.52852573 41.46716172 21.93457031 41.52807617 C6.9887043 42.08457118 6.9887043 42.08457118 1.8359375 37.72265625 C0.05321048 35.81942629 -1.10850659 34.18054084 -2.23828125 31.83081055 C-3.61862863 29.19019192 -5.45572599 29.01525853 -8.1953125 28 C-9.73365074 26.79749617 -11.23208504 25.54285166 -12.6953125 24.25 C-22.61154805 16.09763894 -34.59393162 11.4042485 -47.44140625 11.61328125 C-50.46061015 11.82314176 -50.46061015 11.82314176 -53.3828125 14.25 C-57.59184582 20.63611952 -56.8791061 28.36612541 -55.51171875 35.6328125 C-53.03123642 45.65766639 -48.97592549 54.23979464 -43.8203125 63.125 C-42.1953125 66 -42.1953125 66 -42.1953125 68 C-41.5353125 68 -40.8753125 68 -40.1953125 68 C-38.78515625 69.80078125 -38.78515625 69.80078125 -37.1328125 72.3125 C-26.55986173 87.77028429 -13.75443522 100.68837129 1.23681641 111.83349609 C2.6175512 112.86076966 3.98381201 113.90743683 5.34765625 114.95703125 C19.86247566 125.72765939 36.16856334 132.38869194 54.2734375 132.53125 C58.33120576 131.92078929 59.93320592 130.87148158 62.8046875 128 C65.69451498 123.66525878 65.49489636 120.09280325 64.8046875 115 C63.66517962 111.53780183 62.34852077 108.22606005 60.8984375 104.8828125 C59.8046875 102 59.8046875 102 59.8046875 98 C69.7046875 98 79.6046875 98 89.8046875 98 C95.75257495 109.89577489 99.3355684 121.40946862 96.1484375 134.74609375 C91.93190902 145.23289086 83.52620584 151.59533717 73.45703125 156.03515625 C59.78154027 160.69479264 42.4498524 158.95449046 28.8046875 155 C27.68658691 154.67733154 27.68658691 154.67733154 26.54589844 154.34814453 C7.46382943 148.64211781 -9.45684677 139.10032742 -25.1953125 127 C-26.15308594 126.26523437 -27.11085937 125.53046875 -28.09765625 124.7734375 C-32.40266335 121.39770506 -36.37668367 117.92470186 -40.1953125 114 C-41.1440625 113.236875 -42.0928125 112.47375 -43.0703125 111.6875 C-51.26496713 104.95617655 -59.14142416 95.28106038 -64.1953125 86 C-64.1953125 85.34 -64.1953125 84.68 -64.1953125 84 C-64.8553125 84 -65.5153125 84 -66.1953125 84 C-86.51687658 48.93262978 -86.51687658 48.93262978 -87.1953125 32 C-87.246875 30.80503906 -87.2984375 29.61007813 -87.3515625 28.37890625 C-87.66346787 17.5804823 -87.26580428 6.7845504 -80.1953125 -2 C-79.6590625 -2.845625 -79.1228125 -3.69125 -78.5703125 -4.5625 C-59.42897971 -24.20755208 -19.51446277 -13.12276916 0 0 Z " fill="#EDEDED" transform="translate(233.1953125,139)"/>
<path d="M0 0 C303.93 0 607.86 0 921 0 C921 0.66 921 1.32 921 2 C618.06 1.67 315.12 1.34 3 1 C2.67 1.99 2.34 2.98 2 4 C1.34 2.68 0.68 1.36 0 0 Z " fill="#929292" transform="translate(53,115)"/>
<path d="M0 0 C0.50106262 0.32531708 1.00212524 0.65063416 1.51837158 0.98580933 C4.90598433 2.37025723 8.10671949 2.26278215 11.70605469 2.22705078 C12.86272896 2.22748886 12.86272896 2.22748886 14.04277039 2.22793579 C16.5859206 2.22654493 19.1287761 2.21099527 21.671875 2.1953125 C23.43735596 2.1915815 25.20283899 2.18873494 26.96832275 2.18673706 C31.61095922 2.17910743 36.25347019 2.15946467 40.89605713 2.1373291 C45.63511457 2.11685626 50.37419232 2.10773226 55.11328125 2.09765625 C64.40890925 2.07621817 73.70444418 2.04209027 83 2 C84.81207047 5.34571156 85.16435114 6.93150435 84.390625 10.6953125 C84.21273437 11.57574219 84.03484375 12.45617187 83.8515625 13.36328125 C83.65304687 14.27464844 83.45453125 15.18601563 83.25 16.125 C82.97542969 17.50365234 82.97542969 17.50365234 82.6953125 18.91015625 C81.27411874 25.72588126 81.27411874 25.72588126 79 28 C76.9329071 28.23377991 76.9329071 28.23377991 74.35424805 28.21118164 C73.38952072 28.20780289 72.4247934 28.20442413 71.43083191 28.20094299 C70.38502457 28.18748337 69.33921722 28.17402374 68.26171875 28.16015625 C67.18880081 28.15495468 66.11588287 28.14975311 65.01045227 28.14439392 C61.5693327 28.12653238 58.12850645 28.09537204 54.6875 28.0625 C51.25723304 28.03486563 47.82700971 28.01013449 44.39668274 27.99131775 C42.25975217 27.979085 40.12284403 27.96150527 37.98600769 27.93800354 C37.01182388 27.93147263 36.03764008 27.92494171 35.03393555 27.91821289 C34.18059128 27.90995987 33.32724701 27.90170685 32.44804382 27.89320374 C29.87648126 28.00538852 27.50722887 28.43222744 25 29 C25.66 30.32 26.32 31.64 27 33 C24.95880212 31.38405168 22.95927063 29.7143618 21 28 C21 27.34 21 26.68 21 26 C40.14 26 59.28 26 79 26 C79.33 22.7 79.66 19.4 80 16 C80.99 12.04 81.98 8.08 83 4 C56.27 4 29.54 4 2 4 C1.34 2.68 0.68 1.36 0 0 Z " fill="#868686" transform="translate(779,192)"/>
<path d="M0 0 C0.98438553 -0.00281982 1.96877106 -0.00563965 2.98298645 -0.00854492 C4.07185654 -0.00652069 5.16072662 -0.00449646 6.28259277 -0.00241089 C7.99215401 -0.00503937 7.99215401 -0.00503937 9.73625183 -0.00772095 C13.52450051 -0.01214222 17.31270295 -0.0092005 21.10095215 -0.00582886 C23.72029632 -0.00650182 26.33964042 -0.00747178 28.95898438 -0.00872803 C34.45699571 -0.01054956 39.95499363 -0.00814385 45.45300293 -0.00338745 C51.81787201 0.00205514 58.18270907 0.00029247 64.54757738 -0.00521386 C70.65954547 -0.01029064 76.77149931 -0.00976346 82.88346863 -0.00683212 C85.48951726 -0.00616258 88.0955667 -0.00699222 90.70161438 -0.00931168 C94.33670248 -0.01183658 97.97172811 -0.00799989 101.60681152 -0.00241089 C103.24011665 -0.00544724 103.24011665 -0.00544724 104.90641785 -0.00854492 C105.89080338 -0.0057251 106.8751889 -0.00290527 107.8894043 0 C109.18027073 0.00056554 109.18027073 0.00056554 110.49721527 0.0011425 C112.44470215 0.12698364 112.44470215 0.12698364 113.44470215 1.12698364 C112.82357401 8.89108543 111.02146721 16.51091088 109.44470215 24.12698364 C109.11470215 24.12698364 108.78470215 24.12698364 108.44470215 24.12698364 C107.95887077 16.02979409 109.6072791 10.70162454 111.44470215 2.12698364 C55.01470215 2.62198364 55.01470215 2.62198364 -2.55529785 3.12698364 C-2.88529785 3.78698364 -3.21529785 4.44698364 -3.55529785 5.12698364 C-4.21529785 3.80698364 -4.87529785 2.48698364 -5.55529785 1.12698364 C-3.94658287 -0.48173134 -2.22628886 0.00097535 0 0 Z " fill="#686868" transform="translate(698.5552978515625,127.87301635742188)"/>
<path d="M0 0 C8.43431684 -0.04703537 16.86857587 -0.08222076 25.30299282 -0.10362434 C29.22246987 -0.11391422 33.14185509 -0.12778982 37.0612793 -0.15087891 C81.89713688 -0.40791081 81.89713688 -0.40791081 98 3 C98 3.33 98 3.66 98 4 C96.25008666 4.02715383 94.50005055 4.04646551 92.75 4.0625 C91.28820312 4.07990234 91.28820312 4.07990234 89.796875 4.09765625 C87 4 87 4 85.31829834 3.50672913 C81.93401363 2.76699878 78.5587827 2.82138911 75.11035156 2.79467773 C74.31972824 2.78477814 73.52910492 2.77487854 72.71452332 2.76467896 C70.10658746 2.73314339 67.4986334 2.70833799 64.890625 2.68359375 C63.08029716 2.66301736 61.26997405 2.64202071 59.45965576 2.62062073 C54.69874914 2.5654708 49.93779966 2.51603033 45.17681885 2.46777344 C40.31705926 2.4175067 35.45736178 2.36184764 30.59765625 2.30664062 C21.06515724 2.19914564 11.53260427 2.09768147 2 2 C2.99 3.3921875 2.99 3.3921875 4 4.8125 C6 8 6 8 6 11 C2.52135621 7.16457223 0.91700403 5.14479773 0 0 Z " fill="#676767" transform="translate(819,128)"/>
<path d="M0 0 C5.08603552 -0.19942229 10.16974432 -0.34368638 15.25878906 -0.43945312 C16.98542975 -0.47941271 18.71180446 -0.53380384 20.4375 -0.60351562 C36.6020493 -1.23962057 36.6020493 -1.23962057 43.0703125 3.84375 C45.45677725 6.13517622 47.15839272 8.23758909 49 11 C46.03881737 9.67174623 44.06439779 8.20120912 41.78491211 5.91162109 C37.7640777 2.39618782 34.63497998 2.19999714 29.44140625 2.4140625 C28.65225327 2.42255219 27.86310028 2.43104187 27.05003357 2.43978882 C24.55274384 2.47312543 22.05879751 2.548354 19.5625 2.625 C17.860073 2.65512572 16.15759489 2.68249695 14.45507812 2.70703125 C10.30211574 2.77285009 6.15162274 2.87622255 2 3 C4.27116705 8.76908566 6.60590735 14.43643785 9.36328125 19.9921875 C10.12814494 22.40408895 9.68750787 23.61253486 9 26 C8.29423828 24.26363281 8.29423828 24.26363281 7.57421875 22.4921875 C6.94543497 20.95307496 6.31652186 19.41401525 5.6875 17.875 C5.37876953 17.11445313 5.07003906 16.35390625 4.75195312 15.5703125 C3.35504826 12.15892378 1.94247336 8.89196522 0.20703125 5.6328125 C-1 3 -1 3 0 0 Z " fill="#606060" transform="translate(449,128)"/>
<path d="M0 0 C0.33 0 0.66 0 1 0 C1.042721 1.66611905 1.04063832 3.33382885 1 5 C0 6 0 6 -1.94683838 6.11352539 C-2.80001648 6.10828857 -3.65319458 6.10305176 -4.53222656 6.09765625 C-5.49702942 6.09435303 -6.46183228 6.0910498 -7.45587158 6.08764648 C-8.50684021 6.07934814 -9.55780884 6.0710498 -10.640625 6.0625 C-11.71495789 6.05871338 -12.78929077 6.05492676 -13.8961792 6.05102539 C-18.51172449 6.03461932 -23.12718284 6.0065928 -27.74267578 5.97949219 C-31.10448803 5.96140513 -34.46628577 5.94930717 -37.828125 5.9375 C-38.8709967 5.92920166 -39.91386841 5.92090332 -40.98834229 5.91235352 C-41.96575378 5.90905029 -42.94316528 5.90574707 -43.95019531 5.90234375 C-44.80655579 5.89710693 -45.66291626 5.89187012 -46.54522705 5.88647461 C-49.11725293 6.00542257 -51.49173318 6.43287337 -54 7 C-53.34 8.32 -52.68 9.64 -52 11 C-54.04119788 9.38405168 -56.04072937 7.7143618 -58 6 C-58 5.34 -58 4.68 -58 4 C-38.86 4 -19.72 4 0 4 C0 2.68 0 1.36 0 0 Z " fill="#5A5A5A" transform="translate(858,214)"/>
<path d="M0 0 C26.73 0.33 53.46 0.66 81 1 C81.91216314 4.64865257 82.09792321 5.6240698 81.29296875 9.00390625 C81.0309668 10.11475586 81.0309668 10.11475586 80.76367188 11.24804688 C80.57353516 12.01181641 80.38339844 12.77558594 80.1875 13.5625 C80.00896484 14.33013672 79.83042969 15.09777344 79.64648438 15.88867188 C78.77468909 19.49859676 78.09905276 21.85142086 76 25 C76.52323858 17.00707968 78.16768383 9.94003673 80 2 C53.6 2 27.2 2 0 2 C0 1.34 0 0.68 0 0 Z " fill="#9D9D9D" transform="translate(840,268)"/>
<path d="M0 0 C4.55141991 3.4413175 7.83893972 7.15532034 11.25390625 11.71875 C13.340961 14.44546135 15.60291638 16.97286522 17.93359375 19.4921875 C19 21 19 21 19 24 C-2.12 24 -23.24 24 -45 24 C-45.66 22.68 -46.32 21.36 -47 20 C-46.29462601 20.32531708 -45.58925201 20.65063416 -44.86250305 20.98580933 C-41.76571098 22.08300908 -39.47523858 22.24157534 -36.19995117 22.22705078 C-35.05914597 22.22689972 -33.91834076 22.22674866 -32.7429657 22.22659302 C-31.52196671 22.21627045 -30.30096771 22.20594788 -29.04296875 22.1953125 C-27.78486893 22.1924826 -26.5267691 22.18965271 -25.23054504 22.18673706 C-21.89812618 22.17745121 -18.56598453 22.15950476 -15.23364258 22.1373291 C-11.82831203 22.11681017 -8.42295277 22.10772246 -5.01757812 22.09765625 C1.65502418 22.0756164 8.32749609 22.0421539 15 22 C13.39789257 18.66385205 11.53049251 16.00110171 9.1875 13.125 C8.47980469 12.25101563 7.77210938 11.37703125 7.04296875 10.4765625 C5.3830719 8.46437397 3.7002228 6.47790962 2 4.5 C0 2 0 2 0 0 Z " fill="#A4A4A4" transform="translate(380,172)"/>
<path d="M0 0 C3.64060348 1.57362534 6.29840005 3.80954039 9.25 6.4375 C10.14203125 7.21996094 11.0340625 8.00242187 11.953125 8.80859375 C14 11 14 11 14 14 C8.55574783 14.12395838 3.1123239 14.2145074 -2.33300781 14.2746582 C-4.18373938 14.29974245 -6.03437247 14.33381845 -7.88476562 14.37719727 C-10.55102883 14.43811995 -13.21597825 14.46626991 -15.8828125 14.48828125 C-17.11597702 14.52699089 -17.11597702 14.52699089 -18.37405396 14.56648254 C-22.65272019 14.56855321 -25.21279606 14.25106034 -28.56982422 11.46948242 C-29.37178223 10.65455322 -30.17374023 9.83962402 -31 9 C-30.01 9 -29.02 9 -28 9 C-27.34 9.66 -26.68 10.32 -26 11 C-23.20315203 11.17525055 -20.5067192 11.23143189 -17.7109375 11.1953125 C-16.89251373 11.1924826 -16.07408997 11.18965271 -15.23086548 11.18673706 C-12.61209607 11.17552532 -9.99366636 11.15041929 -7.375 11.125 C-5.60156743 11.11497147 -3.82812951 11.1058454 -2.0546875 11.09765625 C2.29700626 11.07558278 6.6484455 11.04104644 11 11 C10.2059375 10.28972656 9.411875 9.57945312 8.59375 8.84765625 C7.5623705 7.9194147 6.53112751 6.99102146 5.5 6.0625 C4.97535156 5.59392578 4.45070313 5.12535156 3.91015625 4.64257812 C2.5878256 3.44904592 1.29166061 2.22665821 0 1 C0 0.67 0 0.34 0 0 Z " fill="#696969" transform="translate(666,280)"/>
<path d="M0 0 C4.75050819 -0.09913574 9.50040976 -0.17159264 14.25170898 -0.21972656 C15.86672458 -0.23979892 17.48166789 -0.2670633 19.09643555 -0.30175781 C21.42254501 -0.35047215 23.74769093 -0.37301154 26.07421875 -0.390625 C26.79212082 -0.41127014 27.51002289 -0.43191528 28.24967957 -0.45318604 C31.86863886 -0.45479316 33.82310233 -0.11562409 36.88208008 1.88378906 C38.8200463 3.8201915 40.4631294 5.73513807 42 8 C41.67 8.66 41.34 9.32 41 10 C38.5625 8.8125 38.5625 8.8125 36 7 C35.505 4.525 35.505 4.525 35 2 C19.16 2.495 19.16 2.495 3 3 C3.99 4.32 4.98 5.64 6 7 C6 7.66 6 8.32 6 9 C3 8 3 8 1.3125 5.625 C0 3 0 3 0 0 Z " fill="#727272" transform="translate(346,128)"/>
<path d="M0 0 C1.1581019 0.87991555 2.3010893 1.77974336 3.4375 2.6875 C4.07558594 3.18636719 4.71367187 3.68523437 5.37109375 4.19921875 C7.37649402 6.41622 7.51608812 8.09860562 8 11 C3.30455126 11.17420329 -1.38898279 11.3005956 -6.08691406 11.38452148 C-7.68164872 11.41953336 -9.27616177 11.46716172 -10.87011719 11.52807617 C-25.81902298 12.08468437 -25.81902298 12.08468437 -30.96875 7.66015625 C-32.91858402 5.53822868 -34.39414317 3.40878525 -36 1 C-33.16532001 2.15486962 -31.8629231 3.16084371 -29.8371582 5.5378418 C-26.33092464 8.58064065 -23.73132644 8.73210853 -19.29296875 8.70703125 C-18.20487663 8.72971321 -18.20487663 8.72971321 -17.09480286 8.75285339 C-14.79204987 8.79562827 -12.49061016 8.80455741 -10.1875 8.8125 C-8.62040804 8.83565261 -7.05334714 8.86101956 -5.48632812 8.88867188 C-1.65743655 8.95142194 2.17063984 8.98383701 6 9 C5.566875 8.51789063 5.13375 8.03578125 4.6875 7.5390625 C4.130625 6.90742188 3.57375 6.27578125 3 5.625 C2.443125 4.99851563 1.88625 4.37203125 1.3125 3.7265625 C0 2 0 2 0 0 Z " fill="#6A6A6A" transform="translate(266,169)"/>
<path d="M0 0 C2.5 2.3125 2.5 2.3125 5 5 C5 5.99 5 6.98 5 8 C0.08876411 8.09898615 -4.82188938 8.17152247 -9.73388672 8.21972656 C-11.40423702 8.23982393 -13.07451713 8.26710683 -14.74462891 8.30175781 C-17.1476372 8.35036119 -19.54971434 8.37298656 -21.953125 8.390625 C-22.69806213 8.41127014 -23.44299927 8.43191528 -24.21051025 8.45318604 C-27.84084463 8.45475196 -29.63482545 8.29535967 -32.50292969 5.97558594 C-32.99696289 5.32364258 -33.49099609 4.67169922 -34 4 C-33.67 3.34 -33.34 2.68 -33 2 C-32.23187988 2.7266687 -32.23187988 2.7266687 -31.44824219 3.46801758 C-28.14953519 5.53217657 -25.70415881 5.43229183 -21.828125 5.51171875 C-20.8044986 5.53864555 -20.8044986 5.53864555 -19.76019287 5.56611633 C-17.5901906 5.62010383 -15.42040675 5.65407583 -13.25 5.6875 C-11.77470926 5.72068352 -10.29944731 5.75517415 -8.82421875 5.79101562 C-5.21635573 5.87582158 -1.60841638 5.94268837 2 6 C1.34 4.02 0.68 2.04 0 0 Z " fill="#747474" transform="translate(409,286)"/>
<path d="M0 0 C19.8 0 39.6 0 60 0 C60 0.66 60 1.32 60 2 C41.19 2 22.38 2 3 2 C3.33 3.98 3.66 5.96 4 8 C3.01 7.34 2.02 6.68 1 6 C0.67 4.02 0.34 2.04 0 0 Z " fill="#888888" transform="translate(528,246)"/>
<path d="M0 0 C4.72838149 3.56833381 7.60063489 6.95221334 10.4375 12.125 C10.80037109 12.74503906 11.16324219 13.36507812 11.53710938 14.00390625 C12.44722345 15.62227354 13.23340471 17.30891987 14 19 C13.67 19.99 13.34 20.98 13 22 C2.77 22 -7.46 22 -18 22 C-18 21.67 -18 21.34 -18 21 C-8.1 21 1.8 21 12 21 C11.505 18.525 11.505 18.525 11 16 C10.34 16 9.68 16 9 16 C8.68546875 15.32453125 8.3709375 14.6490625 8.046875 13.953125 C5.80861062 9.28782695 3.92066047 5.48503153 0 2 C0 1.34 0 0.68 0 0 Z " fill="#4B4B4B" transform="translate(693,149)"/>
<path d="M0 0 C0.66 0 1.32 0 2 0 C2 0.66 2 1.32 2 2 C3.32 2.66 4.64 3.32 6 4 C5.01 4.495 5.01 4.495 4 5 C5.07628775 7.8569998 6.1607502 10.71044389 7.25 13.5625 C7.55035156 14.36236328 7.85070312 15.16222656 8.16015625 15.98632812 C9.63237301 19.82348882 11.14996255 23.39097791 13.296875 26.90234375 C13.85890625 27.92457031 14.4209375 28.94679687 15 30 C14.67 30.99 14.34 31.98 14 33 C0 5.95939086 0 5.95939086 0 0 Z " fill="#474747" transform="translate(494,168)"/>
<path d="M0 0 C11.22 0 22.44 0 34 0 C34 0.33 34 0.66 34 1 C18.16 1.495 18.16 1.495 2 2 C2.99 3.65 3.98 5.3 5 7 C4.67 7.66 4.34 8.32 4 9 C-0.00390625 4.60546875 -0.00390625 4.60546875 -1 3 C-0.67 2.01 -0.34 1.02 0 0 Z " fill="#3B3B3B" transform="translate(248,128)"/>
<path d="M0 0 C4.57238656 3.45717033 7.8876523 7.20064784 11.3203125 11.78515625 C12.79211136 13.72587707 14.32669869 15.55033524 15.9375 17.375 C18 20 18 20 18 23 C15 22 15 22 14.05078125 20.2421875 C13.70402344 19.50226563 13.35726563 18.76234375 13 18 C11.76486656 16.34770228 10.49042493 14.72438394 9.1875 13.125 C8.47980469 12.25101563 7.77210938 11.37703125 7.04296875 10.4765625 C5.3830719 8.46437397 3.7002228 6.47790962 2 4.5 C0 2 0 2 0 0 Z " fill="#424242" transform="translate(380,172)"/>
<path d="M0 0 C4.23582327 -0.04938628 8.47149465 -0.08571263 12.70751953 -0.10986328 C14.14895547 -0.11992963 15.59037095 -0.1335838 17.03173828 -0.15087891 C19.10193934 -0.17510012 21.17187076 -0.18647641 23.2421875 -0.1953125 C25.11173096 -0.21102295 25.11173096 -0.21102295 27.01904297 -0.22705078 C30 0 30 0 32 2 C22.76 2 13.52 2 4 2 C3.67 2.99 3.34 3.98 3 5 C2.67 4.01 2.34 3.02 2 2 C1.34 2 0.68 2 0 2 C0 1.34 0 0.68 0 0 Z " fill="#787878" transform="translate(872,152)"/>
<path d="M0 0 C0 0.66 0 1.32 0 2 C-0.99 2.33 -1.98 2.66 -3 3 C-4.84399021 4.9466718 -6.49469912 7.00800719 -8.18359375 9.08984375 C-10.02321723 11.02441554 -11.55756696 11.97471492 -14 13 C-12.63924722 7.3868948 -8.37378806 4.38968575 -4 1 C-2 0 -2 0 0 0 Z " fill="#9A9A9A" transform="translate(611,132)"/>
<path d="M0 0 C0.66 0.33 1.32 0.66 2 1 C0.83675515 8.84163878 -0.7547013 16.39592172 -3 24 C-4.04318738 20.76319429 -3.92287835 18.54451583 -3.22265625 15.234375 C-2.94711914 13.90019531 -2.94711914 13.90019531 -2.66601562 12.5390625 C-2.46685547 11.61867188 -2.26769531 10.69828125 -2.0625 9.75 C-1.86720703 8.81414062 -1.67191406 7.87828125 -1.47070312 6.9140625 C-0.98823295 4.60761973 -0.49775423 2.303184 0 0 Z " fill="#353535" transform="translate(920,269)"/>
<path d="M0 0 C2 3 2 3 1.85986328 5.17651367 C1.68181152 5.99869385 1.50375977 6.82087402 1.3203125 7.66796875 C1.13339844 8.56064453 0.94648437 9.45332031 0.75390625 10.37304688 C0.54636719 11.30181641 0.33882812 12.23058594 0.125 13.1875 C-0.07480469 14.12787109 -0.27460937 15.06824219 -0.48046875 16.03710938 C-0.97585588 18.36071091 -1.48273858 20.68118735 -2 23 C-2.33 23 -2.66 23 -3 23 C-3.49155247 14.93489832 -2.04937325 7.78273888 0 0 Z " fill="#383838" transform="translate(862,195)"/>
<path d="M0 0 C-1.38188453 3.21043882 -2.92421903 5.04936365 -5.625 7.25 C-6.57246094 8.03117188 -6.57246094 8.03117188 -7.5390625 8.828125 C-8.02117187 9.21484375 -8.50328125 9.6015625 -9 10 C-9 5.69032084 -6.83274712 4.10253255 -4 1 C-2 0 -2 0 0 0 Z " fill="#AAAAAA" transform="translate(161,131)"/>
<path d="M0 0 C3.96 0 7.92 0 12 0 C12 0.66 12 1.32 12 2 C9.69 2 7.38 2 5 2 C4.67 3.32 4.34 4.64 4 6 C2.62437146 4.71034824 1.29233607 3.37310707 0 2 C0 1.34 0 0.68 0 0 Z " fill="#636363" transform="translate(931,225)"/>
<path d="M0 0 C2.96404505 2.80804268 5.44499019 5.18315774 7 9 C4.0625 7.875 4.0625 7.875 1 6 C0.125 2.8125 0.125 2.8125 0 0 Z " fill="#727272" transform="translate(381,129)"/>
<path d="M0 0 C6.57142857 5 6.57142857 5 8 10 C7.01 10 6.02 10 5 10 C3.33333333 6.66666667 1.66666667 3.33333333 0 0 Z " fill="#5D5D5D" transform="translate(496,272)"/>
<path d="M0 0 C3.465 1.98 3.465 1.98 7 4 C7 5.32 7 6.64 7 8 C3.64379729 6.61122646 1.92701272 5.08322035 0 2 C0 1.34 0 0.68 0 0 Z " fill="#777777" transform="translate(835,150)"/>
<path d="M0 0 C2.96404505 2.80804268 5.44499019 5.18315774 7 9 C5.1875 8.875 5.1875 8.875 3 8 C0 2.96428571 0 2.96428571 0 0 Z " fill="#606060" transform="translate(1115,273)"/>
<path d="M0 0 C0.66 0 1.32 0 2 0 C2 0.66 2 1.32 2 2 C3.32 2.66 4.64 3.32 6 4 C5.01 4.495 5.01 4.495 4 5 C3.67 5.66 3.34 6.32 3 7 C0 2.25 0 2.25 0 0 Z " fill="#2F2F2F" transform="translate(494,168)"/>
<path d="M0 0 C3.96 0 7.92 0 12 0 C12 0.33 12 0.66 12 1 C9.03 1 6.06 1 3 1 C2.67 1.99 2.34 2.98 2 4 C1.34 2.68 0.68 1.36 0 0 Z " fill="#707070" transform="translate(53,115)"/>
<path d="M0 0 C1.65 0 3.3 0 5 0 C4.01 0.33 3.02 0.66 2 1 C2.33 2.98 2.66 4.96 3 7 C2.01 6.34 1.02 5.68 0 5 C-0.1875 2.375 -0.1875 2.375 0 0 Z " fill="#2F2F2F" transform="translate(529,247)"/>
<path d="M0 0 C4.42857143 5.14285714 4.42857143 5.14285714 5 9 C4.01 8.67 3.02 8.34 2 8 C2 6.68 2 5.36 2 4 C1.34 4 0.68 4 0 4 C0 2.68 0 1.36 0 0 Z " fill="#535353" transform="translate(185,196)"/>
<path d="M0 0 C3.39914975 1.13304992 4.05254451 2.12518475 6 5 C5.67 5.66 5.34 6.32 5 7 C4.01 6.67 3.02 6.34 2 6 C0.8125 2.9375 0.8125 2.9375 0 0 Z " fill="#616161" transform="translate(404,158)"/>
</svg>
